<svg width="101" height="101" viewBox="0 0 101 101" fill="none" xmlns="http://www.w3.org/2000/svg">
<rect x="0.955078" y="0.5" width="100" height="100" rx="50" fill="#D8DAE0"/>
<path d="M70.3485 50.5C70.3485 61.211 61.6655 69.894 50.9545 69.894M70.3485 50.5C70.3485 39.789 61.6655 31.106 50.9545 31.106M70.3485 50.5H31.5605M50.9545 69.894C40.2435 69.894 31.5605 61.211 31.5605 50.5M50.9545 69.894C45.9746 64.6651 43.1969 57.7209 43.1969 50.5C43.1969 43.2791 45.9746 36.3349 50.9545 31.106M50.9545 69.894C55.9345 64.6651 58.7121 57.7209 58.7121 50.5C58.7121 43.2791 55.9345 36.3349 50.9545 31.106M31.5605 50.5C31.5605 39.789 40.2435 31.106 50.9545 31.106" stroke="#1C274C" stroke-width="3" stroke-linecap="round" stroke-linejoin="round"/>
</svg>
