<svg width="21" height="22" viewBox="0 0 21 22" fill="none" xmlns="http://www.w3.org/2000/svg">
<path d="M9.74494 8.69504V5.36496C9.74494 4.95075 10.0807 4.61496 10.4949 4.61496C10.9091 4.61496 11.2449 4.95075 11.2449 5.36496V8.69504C11.2449 9.10922 10.9091 9.44504 10.4949 9.44504C10.0807 9.44504 9.74498 9.10922 9.74494 8.69504Z" fill="#1C274C"/>
<path d="M3.10539 9.68473V7.58512C3.10539 3.49103 6.42052 0.175159 10.5146 0.174961C14.5892 0.174961 17.9234 3.51095 17.9345 7.58316V9.68473C17.9345 9.93111 17.989 10.2868 18.0917 10.6603C18.1945 11.034 18.3294 11.3659 18.457 11.5773L18.4579 11.5793L19.7284 13.6994C20.7028 15.3282 19.9295 17.4435 18.122 18.0461C13.1883 19.6872 7.85157 19.6882 2.91789 18.047C2.00183 17.7417 1.32183 17.1025 1.01848 16.2814C0.715263 15.4606 0.815754 14.5322 1.31047 13.7013L1.31144 13.6994L2.58195 11.5793L2.58293 11.5773C2.71105 11.3649 2.8457 11.0348 2.94816 10.6632C3.05054 10.292 3.10539 9.93653 3.10539 9.68473ZM4.60539 9.68473C4.60539 10.1129 4.51954 10.608 4.39445 11.0617C4.26945 11.515 4.08893 11.9851 3.86711 12.3527L2.59855 14.4709C2.31454 14.949 2.29429 15.4047 2.4257 15.7609C2.55736 16.1173 2.86861 16.4486 3.3925 16.6232C8.01858 18.162 13.0213 18.1618 17.6474 16.6232C18.5398 16.3257 18.9267 15.281 18.4413 14.4699L17.1728 12.3527L17.0917 12.2091C16.9066 11.8657 16.7545 11.4545 16.6454 11.0578C16.5206 10.6038 16.4345 10.1083 16.4345 9.68473V7.58707L16.4267 7.28434C16.2592 4.17532 13.6586 1.67496 10.5146 1.67496C7.24895 1.67516 4.60539 4.31945 4.60539 7.58512V9.68473Z" fill="#1C274C"/>
<path d="M7.91494 17.745C7.91494 18.445 8.20835 19.097 8.67568 19.5643C9.143 20.0316 9.79496 20.325 10.495 20.325C11.9108 20.325 13.0751 19.1607 13.0751 17.745H14.5751C14.5751 19.9891 12.7392 21.825 10.495 21.825C9.37509 21.825 8.34683 21.3575 7.61415 20.6248C6.88174 19.8922 6.41494 18.8647 6.41494 17.745H7.91494Z" fill="#1C274C"/>
</svg>
