<svg width="100" height="100" viewBox="0 0 100 100" fill="none" xmlns="http://www.w3.org/2000/svg">
<rect width="100" height="100" rx="50" fill="#4E2F04"/>
<path d="M66.642 38.6769C66.642 38.2672 66.5882 37.9971 66.5348 37.8371C66.3846 37.9124 66.1573 38.0653 65.8689 38.3537L61.2094 43.0132L61.2077 43.0114C59.9865 44.2507 57.9819 44.2304 56.7643 43.0132L50.2933 36.5422C50.146 36.3913 49.8582 36.3729 49.6766 36.5545L43.2461 42.9991L43.2479 43.0009C42.0278 44.2526 40.012 44.2346 38.7904 43.0132L34.131 38.3537C33.8417 38.0644 33.6135 37.9121 33.4633 37.8371C33.41 37.9971 33.3579 38.2676 33.3579 38.6769V55.9111C33.3579 60.1305 36.7843 63.5614 41.0095 63.5768H58.9956C61.3875 63.5768 63.2763 62.7852 64.5635 61.4983C65.8505 60.2112 66.6419 58.3222 66.642 55.9304V38.6769ZM69.3407 55.9304C69.3406 58.9355 68.3328 61.5451 66.4715 63.4063C64.6102 65.2675 62.0008 66.2755 58.9956 66.2755H40.999C35.293 66.2546 30.6592 61.6227 30.6592 55.9111V38.6769C30.6592 37.3831 31.0201 35.8307 32.3951 35.2596C33.7711 34.6882 35.1243 35.5293 36.039 36.4438L40.6985 41.1051C40.8801 41.2865 41.1679 41.2683 41.3152 41.1174L41.3258 41.1051L47.7668 34.6465L47.7686 34.6447C48.9861 33.4277 50.9908 33.4073 52.212 34.6465L58.6723 41.1051C58.854 41.2864 59.1419 41.2684 59.289 41.1174L63.9608 36.4438C64.8756 35.5293 66.2288 34.6882 67.6048 35.2596C68.9797 35.8307 69.3407 37.3831 69.3407 38.6769V55.9304Z" fill="#F2982A"/>
</svg>
