<svg width="101" height="100" viewBox="0 0 101 100" fill="none" xmlns="http://www.w3.org/2000/svg">
<rect x="0.964844" width="100" height="100" rx="50" fill="#FCE7E8"/>
<path d="M42.4641 44.4501C42.2001 44.8461 41.7894 45.4401 41.2321 46.2321C40.0587 45.7187 39.0101 45.4621 38.0861 45.4621C36.8687 45.4621 36.2601 45.9167 36.2601 46.8261C36.2601 47.2367 36.3994 47.5594 36.6781 47.7941C36.9567 48.0287 37.5361 48.3147 38.4161 48.6521C40.0001 49.2681 41.1367 49.9354 41.8261 50.6541C42.5301 51.3727 42.8821 52.2381 42.8821 53.2501C42.8821 54.6727 42.3467 55.7727 41.2761 56.5501C40.3961 57.1807 39.3034 57.4961 37.9981 57.4961C36.4581 57.4961 34.8154 56.9387 33.0701 55.8241L34.3461 54.0421C35.1967 54.6141 36.2894 54.9001 37.6241 54.9001C39.1347 54.9001 39.8901 54.2914 39.8901 53.0741C39.8901 52.2821 39.0761 51.6074 37.4481 51.0501C34.8227 50.1701 33.5101 48.7621 33.5101 46.8261C33.5101 45.6527 33.9501 44.7214 34.8301 44.0321C35.6514 43.3721 36.7441 43.0421 38.1081 43.0421C39.6627 43.0421 41.1147 43.5114 42.4641 44.4501ZM50.8542 43.0421C52.9955 43.0421 54.6455 43.8927 55.8042 45.5941C56.7135 46.9287 57.1682 48.5421 57.1682 50.4341C57.1682 52.6047 56.5742 54.3427 55.3862 55.6481C54.2568 56.8801 52.7462 57.4961 50.8542 57.4961C48.6835 57.4961 47.0335 56.7041 45.9042 55.1201C44.9948 53.8734 44.5402 52.3114 44.5402 50.4341C44.5402 48.2341 45.1342 46.4374 46.3222 45.0441C47.4515 43.7094 48.9622 43.0421 50.8542 43.0421ZM50.8542 55.0761C51.9102 55.0761 52.7242 54.6801 53.2962 53.8881C53.8682 53.0814 54.1542 51.9301 54.1542 50.4341C54.1542 48.8354 53.8388 47.5887 53.2082 46.6941C52.6215 45.9021 51.8368 45.5061 50.8542 45.5061C49.7982 45.5061 48.9768 45.9387 48.3902 46.8041C47.8182 47.6694 47.5322 48.8794 47.5322 50.4341C47.5322 53.5287 48.6395 55.0761 50.8542 55.0761ZM68.4387 44.4501C68.1747 44.8461 67.764 45.4401 67.2067 46.2321C66.0334 45.7187 64.9847 45.4621 64.0607 45.4621C62.8434 45.4621 62.2347 45.9167 62.2347 46.8261C62.2347 47.2367 62.374 47.5594 62.6527 47.7941C62.9314 48.0287 63.5107 48.3147 64.3907 48.6521C65.9747 49.2681 67.1114 49.9354 67.8007 50.6541C68.5047 51.3727 68.8567 52.2381 68.8567 53.2501C68.8567 54.6727 68.3214 55.7727 67.2507 56.5501C66.3707 57.1807 65.278 57.4961 63.9727 57.4961C62.4327 57.4961 60.79 56.9387 59.0447 55.8241L60.3207 54.0421C61.1714 54.6141 62.264 54.9001 63.5987 54.9001C65.1094 54.9001 65.8647 54.2914 65.8647 53.0741C65.8647 52.2821 65.0507 51.6074 63.4227 51.0501C60.7974 50.1701 59.4847 48.7621 59.4847 46.8261C59.4847 45.6527 59.9247 44.7214 60.8047 44.0321C61.626 43.3721 62.7187 43.0421 64.0827 43.0421C65.6374 43.0421 67.0894 43.5114 68.4387 44.4501Z" fill="#ED1B24"/>
</svg>
