<svg width="101" height="100" viewBox="0 0 101 100" fill="none" xmlns="http://www.w3.org/2000/svg">
<rect x="0.0898438" width="100" height="100" rx="50" fill="#EBECEF"/>
<path d="M57.5053 34.6961C58.3348 33.7459 59.7792 33.647 60.7296 34.476C61.6798 35.3055 61.7787 36.7499 60.9498 37.7003L37.0169 65.1134C36.5831 65.6103 35.9543 65.8957 35.2946 65.8957C34.6354 65.8954 34.009 65.6099 33.5754 65.1134L24.0004 54.1494L23.8576 53.9649C23.1878 53.0202 23.3294 51.703 24.2205 50.925C25.1116 50.1473 26.4357 50.1846 27.2813 50.9756L27.4449 51.1451L35.2946 60.137L57.5053 34.6961Z" fill="#1C274C"/>
<path d="M72.8032 34.8121C73.6734 33.8992 75.1201 33.8648 76.0335 34.7347C76.9464 35.6049 76.9807 37.0517 76.1108 37.9651L50.0036 65.3781C49.5422 65.8625 48.8898 66.1199 48.2218 66.0831C47.5542 66.046 46.9375 65.7168 46.5323 65.1848L45.2265 63.4715C44.4626 62.4677 44.6571 61.0351 45.6608 60.2709C46.5221 59.6154 47.6958 59.6689 48.4955 60.3304L72.8032 34.8121Z" fill="#1C274C"/>
</svg>
