<svg width="21" height="18" viewBox="0 0 21 18" fill="none" xmlns="http://www.w3.org/2000/svg">
<path d="M0.75 13.439V2.29319C0.75 1.19502 1.6363 0.302912 2.7324 0.370282C3.70877 0.430292 4.86349 0.548902 5.75 0.782832C6.79921 1.0597 8.04611 1.6494 9.0323 2.17085C9.3393 2.33321 9.6658 2.44583 10 2.50933V17.688C9.6971 17.6212 9.4015 17.5134 9.1224 17.3646C8.12293 16.8319 6.83145 16.2141 5.75 15.9288C4.87329 15.6974 3.73428 15.5789 2.76486 15.5182C1.65605 15.4489 0.75 14.55 0.75 13.439Z" fill="#1C274C"/>
<path d="M11.5 17.688C11.8029 17.6212 12.0985 17.5134 12.3776 17.3646C13.3771 16.8319 14.6685 16.2141 15.75 15.9288C16.6267 15.6974 17.7657 15.5789 18.7351 15.5182C19.844 15.4489 20.75 14.55 20.75 13.439V2.22858C20.75 1.15614 19.9038 0.275802 18.832 0.313142C17.7034 0.352452 16.2969 0.469422 15.25 0.782832C14.3424 1.05455 13.2853 1.59957 12.4238 2.09814C12.1324 2.26684 11.8208 2.39074 11.5 2.4693V17.688Z" fill="#1C274C"/>
</svg>
