<svg width="22" height="19" viewBox="0 0 22 19" fill="none" xmlns="http://www.w3.org/2000/svg">
<path d="M1.5 13.8983V2.75248H0V13.8983H1.5ZM21.5 13.8983V2.68788H20V13.8983H21.5ZM18.8059 0.0228753C17.6675 0.0625353 16.1796 0.180945 15.0349 0.523625L15.4651 1.96062C16.4143 1.67647 17.7392 1.56095 18.8581 1.52197L18.8059 0.0228753ZM15.0349 0.523625C14.0399 0.821515 12.9206 1.40336 12.0482 1.90831L12.7995 3.20656C13.65 2.71437 14.6449 2.20617 15.4651 1.96062L15.0349 0.523625ZM2.68639 1.57816C3.65238 1.63753 4.74643 1.75298 5.55864 1.9673L5.94136 0.516945C4.98055 0.263405 3.76517 0.141625 2.77841 0.0809753L2.68639 1.57816ZM5.55864 1.9673C6.52076 2.22119 7.70486 2.77664 8.68167 3.29316L9.3828 1.96713C8.38736 1.44074 7.07766 0.816795 5.94136 0.516945L5.55864 1.9673ZM12.7304 18.4858C13.7214 17.9575 14.9488 17.3752 15.9414 17.1133L15.5586 15.6629C14.3883 15.9717 13.0327 16.6248 12.0248 17.1621L12.7304 18.4858ZM15.9414 17.1133C16.7443 16.9014 17.8232 16.786 18.782 16.7261L18.6883 15.229C17.7082 15.2903 16.5091 15.4121 15.5586 15.6629L15.9414 17.1133ZM9.4752 17.1621C8.46727 16.6248 7.1117 15.9717 5.94136 15.6629L5.55864 17.1133C6.5512 17.3752 7.7786 17.9575 8.7696 18.4858L9.4752 17.1621ZM5.94136 15.6629C4.99092 15.4121 3.79176 15.2903 2.81168 15.229L2.71804 16.7261C3.6768 16.786 4.75566 16.9014 5.55864 17.1133L5.94136 15.6629ZM20 13.8983C20 14.5841 19.4317 15.1825 18.6883 15.229L18.782 16.7261C20.2562 16.6339 21.5 15.4345 21.5 13.8983H20ZM21.5 2.68788C21.5 1.22457 20.3347 -0.0303747 18.8059 0.0228753L18.8581 1.52197C19.4729 1.50056 20 2.00629 20 2.68788H21.5ZM0 13.8983C0 15.4345 1.24378 16.6339 2.71804 16.7261L2.81168 15.229C2.06831 15.1825 1.5 14.5841 1.5 13.8983H0ZM12.0248 17.1621C11.2325 17.5845 10.2675 17.5845 9.4752 17.1621L8.7696 18.4858C10.0029 19.1432 11.4971 19.1432 12.7304 18.4858L12.0248 17.1621ZM12.0482 1.90831C11.2301 2.38177 10.2117 2.40539 9.3828 1.96713L8.68167 3.29316C9.9739 3.97645 11.541 3.93493 12.7995 3.20656L12.0482 1.90831ZM1.5 2.75248C1.5 2.0553 2.05243 1.53919 2.68639 1.57816L2.77841 0.0809753C1.22017 -0.0147947 0 1.25333 0 2.75248H1.5Z" fill="#1C274C"/>
<path d="M11.5 3.60856V18.7541H10V3.60856H11.5Z" fill="#1C274C"/>
<path d="M3.02246 6.57291C3.1229 6.17114 3.52987 5.92671 3.93164 6.02702L7.93164 7.02702C8.33341 7.12746 8.57785 7.53442 8.47754 7.9362C8.3771 8.33797 7.97013 8.58241 7.56836 8.48209L3.56836 7.48209C3.16659 7.38165 2.92215 6.97469 3.02246 6.57291Z" fill="#1C274C"/>
<path d="M17.5684 6.02702C17.9701 5.92671 18.3771 6.17114 18.4775 6.57291C18.5779 6.97469 18.3334 7.38165 17.9316 7.48209L13.9316 8.48209C13.5299 8.58241 13.1229 8.33797 13.0225 7.9362C12.9221 7.53442 13.1666 7.12746 13.5684 7.02702L17.5684 6.02702Z" fill="#1C274C"/>
<path d="M3.02246 10.5729C3.1229 10.1711 3.52987 9.9267 3.93164 10.027L7.93164 11.027C8.33341 11.1275 8.57785 11.5344 8.47754 11.9362C8.3771 12.338 7.97013 12.5824 7.56836 12.4821L3.56836 11.4821C3.16659 11.3817 2.92215 10.9747 3.02246 10.5729Z" fill="#1C274C"/>
<path d="M17.5684 10.027C17.9701 9.9267 18.3771 10.1711 18.4775 10.5729C18.5779 10.9747 18.3334 11.3817 17.9316 11.4821L13.9316 12.4821C13.5299 12.5824 13.1229 12.338 13.0225 11.9362C12.9221 11.5344 13.1666 11.1275 13.5684 11.027L17.5684 10.027Z" fill="#1C274C"/>
</svg>
