<svg width="30" height="34" viewBox="0 0 30 34" fill="none" xmlns="http://www.w3.org/2000/svg">
<path d="M20.3507 10.4275H9.87522V11.3105H20.3507V10.4275Z" fill="#1C274C"/>
<path d="M20.3507 11.3105V10.4275H9.87522V11.3105H20.3507ZM20.7024 11.6594H9.52389V10.0783H20.7024V11.6594Z" fill="#1C274C"/>
<path d="M20.3507 13.1482H9.87522V14.0312H20.3507V13.1482Z" fill="#1C274C"/>
<path d="M20.3507 14.0312V13.1482H9.87522V14.0312H20.3507ZM20.7024 14.3801H9.52389V12.799H20.7024V14.3801Z" fill="#1C274C"/>
<path d="M25.8303 17.0709H24.942V7.2752L19.0558 1.23222H5.27808V17.0709H4.38977V0.349226H19.4322L25.8303 6.91758V17.0709Z" fill="#1C274C"/>
<path d="M4.03844 0H19.5817L26.0831 6.67397L26.1815 6.77635V17.4203H24.5908V7.41679L18.9065 1.58119H5.62916V17.4203H4.03844V0ZM4.38977 17.0709H5.27808V1.23222H19.0558L24.942 7.2752V17.0709H25.8303V6.91758L19.4322 0.349226H4.38977V17.0709Z" fill="#1C274C"/>
<path d="M15.6958 33.6502C15.3201 33.6509 14.9584 33.5092 14.6842 33.2539L14.018 32.6336L7.7054 27.6822L5.29696 27.9405C5.23801 27.9477 5.17869 27.9514 5.1193 27.9516C4.91294 27.9512 4.70891 27.9082 4.52022 27.8251C4.33152 27.7421 4.1623 27.6209 4.02334 27.4692L4.68069 26.8754C4.73632 26.9361 4.80404 26.9846 4.87955 27.0179C4.95506 27.0511 5.03671 27.0684 5.1193 27.0686C5.14444 27.0701 5.16966 27.0701 5.1948 27.0686L7.78979 26.7948L7.80756 26.7717C7.81422 26.7617 7.82199 26.7529 7.82976 26.743L8.77026 25.6193C8.85857 25.5121 8.96727 25.4233 9.09015 25.3579C9.21303 25.2925 9.34768 25.2518 9.48639 25.2382C9.6251 25.2245 9.76515 25.2382 9.89854 25.2784C10.0319 25.3187 10.156 25.3846 10.2637 25.4726L11.121 26.1812C11.3103 26.3381 11.4384 26.556 11.483 26.797C11.6804 26.8222 11.8665 26.9031 12.0193 27.0299L12.8754 27.7385C12.9824 27.8266 13.0709 27.9348 13.1357 28.057C13.2005 28.1792 13.2403 28.3129 13.2529 28.4504V28.51C13.396 28.5497 13.5289 28.6193 13.6427 28.7142L14.4988 29.4228C14.711 29.5966 14.8458 29.8464 14.8741 30.1182C15.0401 30.1545 15.1948 30.2303 15.3249 30.3389L16.1821 31.0476C16.3109 31.1546 16.4118 31.2909 16.4764 31.4449L16.4853 31.4648C16.4964 31.4935 16.5086 31.5222 16.5175 31.5509C16.531 31.5952 16.5373 31.6414 16.5363 31.6877C16.5363 31.7451 16.5141 32.1712 16.0766 32.6921C16.1296 32.667 16.1783 32.6339 16.221 32.5939L20.9468 28.212L22.9322 26.4107L17.0371 20.9108C17.013 20.888 16.9843 20.8706 16.9529 20.8596C16.9216 20.8485 16.8882 20.8442 16.855 20.8468C16.8235 20.8482 16.7926 20.8564 16.7644 20.8707C16.7363 20.8849 16.7115 20.905 16.6918 20.9296L16.6818 20.9417L15.426 22.4306C15.1885 22.716 14.8872 22.9423 14.5462 23.0914C14.2051 23.2405 13.8338 23.3083 13.4617 23.2894C12.9931 23.2596 12.6222 23.1017 12.3613 22.817C12.1847 22.6306 12.0774 22.39 12.057 22.1348C12.0171 21.6039 12.3646 21.1768 12.4446 21.0863L13.1041 20.2695L15.1495 17.8071C15.0469 17.7297 14.9218 17.6879 14.793 17.6879H5.5046V16.8049H14.7941C15.1512 16.805 15.4962 16.9331 15.7657 17.1658C16.0091 16.963 16.3115 16.843 16.6285 16.8236H16.654L23.9904 16.8093V17.6923L16.6696 17.7066C16.5385 17.7172 16.4147 17.7708 16.3176 17.859L16.0855 18.0676L13.7915 20.8269L13.1252 21.647C13.1195 21.6548 13.1132 21.6622 13.1063 21.6691C13.0079 21.7795 12.9489 21.9192 12.9387 22.0664C12.9437 22.1258 12.9706 22.1812 13.0142 22.222C13.113 22.3324 13.2818 22.3931 13.5128 22.4075C13.746 22.4183 13.9785 22.3747 14.1917 22.2802C14.405 22.1857 14.593 22.0429 14.7408 21.8633L15.9934 20.3777L16 20.3711C16.0977 20.2525 16.2189 20.1552 16.3561 20.0852C16.4933 20.0152 16.6435 19.9741 16.7973 19.9644C16.9512 19.9546 17.1054 19.9765 17.2504 20.0286C17.3954 20.0807 17.5281 20.162 17.6401 20.2673L23.8105 26.02L24.5267 26.2308C24.626 26.2597 24.731 26.2624 24.8316 26.2388C24.9323 26.2152 25.025 26.1661 25.1008 26.0962L25.7071 26.7419C25.4323 26.9969 25.0703 27.1385 24.6944 27.1381C24.5519 27.1378 24.4102 27.1174 24.2736 27.0774L23.6995 26.9074L21.5475 28.8599L16.8262 33.2385C16.5872 33.4602 16.2811 33.5968 15.9556 33.627C15.8699 33.6424 15.7829 33.6502 15.6958 33.6502ZM14.0835 31.563L14.5798 31.9515L14.6076 31.9758L15.0906 32.4228C15.4604 32.1204 15.5859 31.8654 15.628 31.7396L15.6147 31.7263L14.7564 31.0166C14.7261 30.9926 14.6885 30.9796 14.6498 30.9796C14.6111 30.9796 14.5735 30.9926 14.5432 31.0166L14.0835 31.563ZM12.2513 30.1281L13.3862 31.0189L13.8381 30.4791C13.857 30.457 13.877 30.4361 13.8969 30.4151L13.9558 30.3445C13.9846 30.3102 13.9985 30.266 13.9945 30.2215C13.9906 30.177 13.9691 30.1359 13.9347 30.1072L13.0786 29.3986C13.0505 29.3754 13.0158 29.3618 12.9794 29.3599C12.943 29.3579 12.9069 29.3676 12.8765 29.3875L12.2513 30.1281ZM10.4048 28.68L11.5529 29.5807L12.1592 28.8577H12.1536C12.18 28.826 12.2082 28.7958 12.238 28.7672L12.3257 28.6624C12.3401 28.6455 12.3509 28.626 12.3576 28.605C12.3643 28.584 12.3668 28.5619 12.3648 28.5399C12.3629 28.5179 12.3565 28.4965 12.3462 28.477C12.3359 28.4575 12.3217 28.4402 12.3046 28.4262L11.4474 27.7165C11.4303 27.7022 11.4106 27.6915 11.3893 27.6849C11.368 27.6783 11.3456 27.676 11.3234 27.678C11.3012 27.6801 11.2797 27.6865 11.26 27.6969C11.2403 27.7073 11.2228 27.7214 11.2087 27.7385L11.202 27.733L10.4048 28.68ZM8.56595 27.2363L9.70855 28.1293L10.5724 27.0973C10.6011 27.0628 10.6148 27.0185 10.6106 26.9741C10.6065 26.9296 10.5847 26.8886 10.5502 26.86L9.69411 26.1514C9.65947 26.1229 9.6149 26.1093 9.57016 26.1134C9.52542 26.1175 9.48415 26.1391 9.45538 26.1734L8.56595 27.2363Z" fill="#1C274C"/>
<path d="M14.7945 16.4557C15.1413 16.4558 15.4779 16.5552 15.7684 16.7366C16.0215 16.5841 16.309 16.4932 16.6072 16.475L16.6175 16.4739H16.653L23.9898 16.4602L24.3422 16.4591V18.0414H23.9909L16.693 18.055C16.6416 18.0602 16.5928 18.0818 16.5546 18.1165L16.5534 18.1176L16.3417 18.3076L14.0643 21.0456L13.3983 21.867L13.3972 21.8658C13.3878 21.8777 13.3777 21.8888 13.3674 21.8999L13.3697 21.9011C13.3421 21.9321 13.3227 21.9684 13.309 22.0069C13.3427 22.0241 13.4067 22.0499 13.5276 22.0581C13.7059 22.0663 13.8853 22.0335 14.0483 21.9614C14.2115 21.8891 14.3552 21.7791 14.4683 21.6417L14.4718 21.6383L15.7237 20.1527L15.734 20.1413L15.7512 20.1242C15.8754 19.9804 16.0254 19.8605 16.1952 19.7739C16.3754 19.682 16.5734 19.6285 16.7754 19.6158C16.9774 19.603 17.1803 19.6315 17.3705 19.6999C17.5604 19.7683 17.7341 19.8749 17.8809 20.0128L23.9898 25.7073L24.6238 25.895C24.6646 25.9069 24.7094 25.9081 24.7508 25.8984C24.7921 25.8887 24.8306 25.8691 24.8618 25.8404L25.1181 25.6026L25.9639 26.5036L26.2042 26.7584L25.9467 26.9973C25.6068 27.3127 25.1586 27.4881 24.6936 27.4876C24.5178 27.4872 24.3426 27.4618 24.174 27.4125L23.7895 27.2976L21.7868 29.1142L21.7879 29.1154L17.0661 33.4938C16.7703 33.7683 16.391 33.9376 15.9881 33.975L15.9869 33.9738C15.9439 33.9808 15.901 33.9882 15.8576 33.992L15.6963 34C15.2312 34.0008 14.7837 33.8246 14.4443 33.5086L13.7863 32.8966L7.60075 28.045L5.33483 28.2884L5.33368 28.2873C5.26299 28.2956 5.19199 28.3006 5.12082 28.3009H5.11853C4.86353 28.3005 4.6113 28.2476 4.3781 28.1451C4.14485 28.0424 3.93537 27.8923 3.76356 27.7048L3.52667 27.4455L4.44448 26.6173L4.70426 26.3819L4.94001 26.6401C4.96278 26.6649 4.99151 26.6845 5.0224 26.6981C5.05309 26.7116 5.0861 26.7184 5.11968 26.7186H5.12998L5.14028 26.7197C5.14929 26.7203 5.15872 26.7201 5.16774 26.7197L7.60647 26.4626L8.50025 25.3956C8.61739 25.254 8.76114 25.1364 8.92368 25.0498C9.08713 24.9628 9.26674 24.9088 9.45125 24.8905C9.63594 24.8724 9.82296 24.8905 10.0006 24.944C10.1336 24.9841 10.2596 25.0438 10.3748 25.1203L10.4869 25.2022L10.4881 25.2034L11.3452 25.9121L11.3464 25.9132C11.537 26.0713 11.6806 26.2757 11.7652 26.5047C11.9397 26.5589 12.1033 26.6443 12.2447 26.7618L13.0996 27.4694L13.2015 27.5626C13.2988 27.6603 13.3816 27.7716 13.4464 27.8937C13.5079 28.0097 13.5513 28.1343 13.578 28.2622C13.6812 28.3118 13.7792 28.3718 13.8675 28.4454L14.7224 29.1529L14.8242 29.2451C14.993 29.4135 15.1135 29.6224 15.1778 29.8502C15.3118 29.9046 15.4381 29.9768 15.5498 30.0698L16.4069 30.7785L16.4081 30.7796C16.5778 30.9208 16.7108 31.1004 16.7972 31.3029L16.8063 31.3234L16.8132 31.3393L16.8533 31.4485L16.8544 31.4496C16.8608 31.4708 16.8635 31.4929 16.8681 31.5145L20.7065 27.9562L20.7099 27.9539L22.4139 26.4058L16.883 21.2459L15.6963 22.6519L15.6974 22.653C15.4251 22.9803 15.0792 23.2407 14.688 23.4117C14.2969 23.5827 13.8708 23.6597 13.4441 23.6381H13.4395C12.9035 23.604 12.4404 23.4194 12.1051 23.0557C11.8741 22.8116 11.7336 22.4968 11.7069 22.1627V22.1604C11.6574 21.5012 12.0629 20.9912 12.1704 20.8671L12.8295 20.0503L12.833 20.0469L14.5015 18.0368H5.15287V16.4557H14.7945L14.7941 16.8049H5.5046V17.6879H14.793C14.9218 17.6879 15.0469 17.7297 15.1495 17.8071L13.1041 20.2695L12.4446 21.0863C12.3646 21.1768 12.0171 21.6039 12.057 22.1348C12.0774 22.39 12.1847 22.6306 12.3613 22.817C12.6222 23.1017 12.9931 23.2596 13.4617 23.2894C13.8338 23.3083 14.2051 23.2405 14.5462 23.0914C14.8872 22.9423 15.1885 22.716 15.426 22.4306L16.6818 20.9417L16.6918 20.9296C16.7115 20.905 16.7363 20.8849 16.7644 20.8707C16.7926 20.8564 16.8235 20.8482 16.855 20.8468C16.8882 20.8442 16.9216 20.8485 16.9529 20.8596C16.9843 20.8706 17.013 20.888 17.0371 20.9108L22.9322 26.4107L20.9468 28.212L16.221 32.5939C16.1783 32.6339 16.1296 32.667 16.0766 32.6921C16.5141 32.1712 16.5363 31.7451 16.5363 31.6877C16.5368 31.6645 16.536 31.6409 16.5328 31.618L16.5175 31.5509C16.5086 31.5222 16.4964 31.4935 16.4853 31.4648L16.4764 31.4449C16.4118 31.2909 16.3109 31.1546 16.1821 31.0476L15.3249 30.3389C15.1948 30.2303 15.0401 30.1545 14.8741 30.1182C14.8493 29.8805 14.7429 29.6598 14.5747 29.4919L14.4988 29.4228L13.6427 28.7142C13.5289 28.6193 13.396 28.5497 13.2529 28.51V28.4504C13.2434 28.3475 13.2188 28.2462 13.1797 28.1507L13.1357 28.057C13.0871 27.9654 13.0251 27.8817 12.952 27.8083L12.8754 27.7385L12.0193 27.0299C11.8665 26.9031 11.6804 26.8222 11.483 26.797C11.4384 26.556 11.3103 26.3381 11.121 26.1812L10.2637 25.4726C10.1831 25.4067 10.0932 25.3533 9.99713 25.3137L9.89854 25.2784C9.76515 25.2382 9.6251 25.2245 9.48639 25.2382L9.38373 25.2534C9.28141 25.2737 9.18246 25.3088 9.09015 25.3579L9.00035 25.4115C8.91396 25.4691 8.83639 25.5391 8.77026 25.6193L7.82976 26.743C7.82199 26.7529 7.81422 26.7617 7.80756 26.7717L7.78979 26.7948L5.1948 27.0686H5.1193C5.03671 27.0684 4.95506 27.0511 4.87955 27.0179C4.80404 26.9846 4.73632 26.9361 4.68069 26.8754L4.02334 27.4692C4.1623 27.6209 4.33152 27.7421 4.52022 27.8251C4.66175 27.8874 4.81188 27.9276 4.96518 27.9437L5.1193 27.9516C5.17869 27.9514 5.23801 27.9477 5.29696 27.9405L7.7054 27.6822L14.018 32.6336L14.6842 33.2539C14.924 33.4771 15.231 33.6138 15.5555 33.6439L15.6958 33.6502C15.7829 33.6502 15.8699 33.6424 15.9556 33.627C16.2401 33.6005 16.5101 33.4924 16.7331 33.3175L16.8262 33.2385L21.5475 28.8599L23.6995 26.9074L24.2736 27.0774C24.3419 27.0974 24.4115 27.1123 24.4819 27.1224L24.6944 27.1381C25.0703 27.1385 25.4323 26.9969 25.7071 26.7419L25.1008 26.0962C25.025 26.1661 24.9323 26.2152 24.8316 26.2388L24.7554 26.251C24.6787 26.2589 24.6011 26.2525 24.5267 26.2308L23.8105 26.02L17.6401 20.2673C17.5561 20.1883 17.4605 20.1228 17.3568 20.073L17.2504 20.0286C17.1054 19.9765 16.9512 19.9546 16.7973 19.9644C16.6435 19.9741 16.4933 20.0152 16.3561 20.0852L16.2559 20.1424C16.1594 20.2049 16.0732 20.2822 16 20.3711L15.9934 20.3777L14.7408 21.8633L14.6228 21.9909C14.4975 22.1113 14.3517 22.2093 14.1917 22.2802C13.9785 22.3747 13.746 22.4183 13.5128 22.4075C13.2818 22.3931 13.113 22.3324 13.0142 22.222C12.9706 22.1812 12.9437 22.1258 12.9387 22.0664C12.9489 21.9192 13.0079 21.7795 13.1063 21.6691C13.1132 21.6622 13.1195 21.6548 13.1252 21.647L13.7915 20.8269L16.0855 18.0676L16.3176 17.859C16.4147 17.7708 16.5385 17.7172 16.6696 17.7066L23.9904 17.6923V16.8093L16.654 16.8236H16.6285C16.3115 16.843 16.0091 16.963 15.7657 17.1658L15.6608 17.0836C15.4452 16.929 15.1919 16.8343 14.9272 16.8106L14.7941 16.8049L14.7945 16.4557ZM14.6498 30.9796C14.6885 30.9796 14.7261 30.9926 14.7564 31.0166L15.6147 31.7263L15.628 31.7396C15.5859 31.8654 15.4604 32.1204 15.0906 32.4228L14.6076 31.9758L14.5798 31.9515L14.0835 31.563L14.5432 31.0166C14.5735 30.9926 14.6111 30.9796 14.6498 30.9796ZM14.585 31.5099L14.7979 31.6771L14.8048 31.6828L14.8116 31.6896L14.8402 31.7135L14.8471 31.7204L15.0874 31.9422C15.1262 31.8994 15.1587 31.8608 15.1847 31.825L14.6743 31.4041L14.585 31.5099ZM12.9794 29.3599C13.0158 29.3618 13.0505 29.3754 13.0786 29.3986L13.9347 30.1072C13.9691 30.1359 13.9906 30.177 13.9945 30.2215C13.9985 30.266 13.9846 30.3102 13.9558 30.3445L13.8969 30.4151C13.877 30.4361 13.857 30.457 13.8381 30.4791L13.3862 31.0189L12.2513 30.1281L12.8765 29.3875C12.9069 29.3676 12.943 29.3579 12.9794 29.3599ZM12.7529 30.0766L13.3342 30.5328L13.5654 30.2563L12.9978 29.7865L12.7529 30.0766ZM11.3893 27.6849C11.4106 27.6915 11.4303 27.7022 11.4474 27.7165L12.3046 28.4262C12.3217 28.4402 12.3359 28.4575 12.3462 28.477C12.3565 28.4965 12.3629 28.5179 12.3648 28.5399C12.3668 28.5619 12.3643 28.584 12.3576 28.605C12.3509 28.626 12.3401 28.6455 12.3257 28.6624L12.238 28.7672C12.2082 28.7958 12.18 28.826 12.1536 28.8577H12.1592L11.5529 29.5807L10.4048 28.68L11.202 27.733L11.2087 27.7385C11.2228 27.7214 11.2403 27.7073 11.26 27.6969C11.2797 27.6865 11.3012 27.6801 11.3234 27.678C11.3456 27.676 11.368 27.6783 11.3893 27.6849ZM11.256 28.2326L11.2457 28.2235L10.9058 28.6274L11.4997 29.0938L11.8831 28.6353C11.9001 28.6149 11.9188 28.5957 11.9369 28.5762L11.3635 28.1007L11.256 28.2326ZM9.57016 26.1134C9.6149 26.1093 9.65947 26.1229 9.69411 26.1514L10.5502 26.86C10.5847 26.8886 10.6065 26.9296 10.6106 26.9741C10.6148 27.0185 10.6011 27.0628 10.5724 27.0973L9.70855 28.1293L8.56595 27.2363L9.45538 26.1734C9.48415 26.1391 9.52542 26.1175 9.57016 26.1134ZM9.06673 27.1838L9.6561 27.6445L10.186 27.0121L9.60918 26.5354L9.06673 27.1838Z" fill="#1C274C"/>
<path d="M3.67252 29.265H1.31404C1.05881 29.2647 0.81411 29.1638 0.63363 28.9844C0.453151 28.805 0.351626 28.5618 0.351332 28.3081V17.7662C0.351332 17.5123 0.452726 17.2688 0.633237 17.0892C0.813748 16.9096 1.05861 16.8085 1.31404 16.8082H6.00878C6.15288 16.8079 6.2952 16.84 6.42514 16.9019C6.55509 16.9638 6.66934 17.054 6.75941 17.1658C6.85022 17.2771 6.9144 17.4075 6.9471 17.5471C6.97981 17.6867 6.98017 17.8318 6.94817 17.9715L4.61635 28.51C4.57076 28.7248 4.45189 28.9173 4.27988 29.0548C4.10787 29.1924 3.8933 29.2667 3.67252 29.265ZM1.31404 17.6912C1.30418 17.6912 1.29441 17.6931 1.28531 17.6969C1.27622 17.7007 1.26796 17.7063 1.26104 17.7132C1.25412 17.7202 1.24866 17.7285 1.24499 17.7376C1.24132 17.7467 1.2395 17.7564 1.23965 17.7662V28.3059C1.23965 28.3255 1.24749 28.3443 1.26144 28.3581C1.27539 28.372 1.29431 28.3798 1.31404 28.3798H3.67252C3.68964 28.3799 3.70628 28.3742 3.71963 28.3635C3.73298 28.3529 3.74222 28.338 3.7458 28.3213L6.07762 17.7817C6.08032 17.771 6.08042 17.7598 6.07791 17.7491C6.0754 17.7383 6.07036 17.7283 6.06319 17.7199C6.05635 17.7108 6.04746 17.7035 6.03723 17.6985C6.027 17.6935 6.01573 17.691 6.00434 17.6912H1.31404Z" fill="#1C274C"/>
<path d="M6.00927 16.459C6.20568 16.4588 6.39974 16.502 6.57689 16.5864C6.75381 16.6707 6.9095 16.7938 7.03236 16.9458L7.11934 17.0641C7.19868 17.1877 7.25625 17.3246 7.28986 17.468C7.33458 17.6591 7.3348 17.858 7.291 18.0493L4.95985 28.5852L4.9587 28.5841C4.89605 28.8768 4.73443 29.1392 4.4998 29.3269C4.2653 29.5144 3.97329 29.6152 3.67239 29.6135L1.31378 29.6147C0.965441 29.6143 0.630831 29.4762 0.38452 29.2313C0.138503 28.9866 0.000479919 28.6547 0 28.3088V17.766C6.23933e-05 17.4196 0.138245 17.0874 0.38452 16.8423C0.630875 16.5972 0.965178 16.4594 1.31378 16.459H6.00927ZM1.31404 28.3798C1.29431 28.3798 1.27539 28.372 1.26144 28.3581C1.24749 28.3443 1.23965 28.3255 1.23965 28.3059V17.7662C1.2395 17.7564 1.24132 17.7467 1.24499 17.7376C1.24866 17.7285 1.25412 17.7202 1.26104 17.7132C1.26796 17.7063 1.27622 17.7007 1.28531 17.6969C1.29441 17.6931 1.30418 17.6912 1.31404 17.6912H6.00434C6.01573 17.691 6.027 17.6935 6.03723 17.6985C6.04746 17.7035 6.05635 17.7108 6.06319 17.7199C6.07036 17.7283 6.0754 17.7383 6.07791 17.7491C6.08042 17.7598 6.08032 17.771 6.07762 17.7817L3.7458 28.3213C3.74222 28.338 3.73298 28.3529 3.71963 28.3635C3.70628 28.3742 3.68964 28.3799 3.67252 28.3798H1.31404ZM1.59072 28.0301H3.45038L5.66137 18.0402H1.59072V28.0301ZM0.351332 28.3081C0.351626 28.5618 0.453151 28.805 0.63363 28.9844C0.791478 29.1412 0.998668 29.2378 1.21879 29.2598L1.31404 29.265H3.67252C3.83822 29.2663 4.00055 29.225 4.14389 29.146L4.27988 29.0548C4.45189 28.9173 4.57076 28.7248 4.61635 28.51L6.94817 17.9715C6.97219 17.8666 6.97844 17.7586 6.96599 17.6523L6.9471 17.5471C6.9144 17.4075 6.85022 17.2771 6.75941 17.1658C6.66934 17.054 6.55509 16.9638 6.42514 16.9019C6.32797 16.8556 6.2234 16.8257 6.11684 16.8139L6.00878 16.8082H1.31404C1.05861 16.8085 0.813748 16.9096 0.633237 17.0892C0.452726 17.2688 0.351332 17.5123 0.351332 17.7662V28.3081Z" fill="#1C274C"/>
<path d="M28.6854 29.265H26.3269C26.1071 29.2661 25.8937 29.192 25.7225 29.0551C25.5512 28.9182 25.4325 28.7269 25.3864 28.5134L23.049 17.9738C23.0176 17.8341 23.0184 17.6892 23.0512 17.5498C23.0841 17.4105 23.1483 17.2803 23.2389 17.1691C23.3292 17.0573 23.4436 16.9671 23.5738 16.9052C23.7039 16.8433 23.8464 16.8113 23.9906 16.8115H28.6854C28.9408 16.8118 29.1857 16.9129 29.3662 17.0925C29.5467 17.2721 29.6481 17.5157 29.6481 17.7696V28.3092C29.6475 28.5627 29.5458 28.8056 29.3654 28.9848C29.1849 29.164 28.9404 29.2647 28.6854 29.265ZM23.9318 17.7199C23.9246 17.7283 23.9195 17.7383 23.9168 17.749C23.9142 17.7597 23.9139 17.7709 23.9162 17.7817L26.2481 28.3213C26.2516 28.338 26.2609 28.3529 26.2742 28.3635C26.2876 28.3742 26.3042 28.3799 26.3213 28.3798H28.6798C28.6995 28.3798 28.7185 28.372 28.7324 28.3582C28.7464 28.3443 28.7542 28.3255 28.7542 28.3059V17.7662C28.7544 17.7564 28.7525 17.7467 28.7489 17.7376C28.7452 17.7285 28.7397 17.7202 28.7328 17.7132C28.7259 17.7063 28.7176 17.7007 28.7085 17.6969C28.6994 17.6931 28.6897 17.6912 28.6798 17.6912L23.9904 17.6923C23.979 17.6921 23.968 17.6935 23.9577 17.6985C23.9475 17.7035 23.9386 17.7108 23.9318 17.7199Z" fill="#1C274C"/>
<path d="M23.9906 16.8115L23.8832 16.8172C23.7762 16.829 23.6713 16.8588 23.5738 16.9052L23.4792 16.9571C23.388 17.0138 23.3065 17.0854 23.2389 17.1691C23.1483 17.2803 23.0841 17.4105 23.0512 17.5498C23.0184 17.6892 23.0176 17.8341 23.049 17.9738L25.3864 28.5134C25.4325 28.7269 25.5512 28.9182 25.7225 29.0551C25.8937 29.192 26.1071 29.2661 26.3269 29.265H28.6854L28.7801 29.2608C29.0003 29.2389 29.2074 29.1416 29.3654 28.9848C29.5458 28.8056 29.6475 28.5627 29.6481 28.3092V17.7696C29.6481 17.5157 29.5467 17.2721 29.3662 17.0925C29.1857 16.9129 28.9408 16.8118 28.6854 16.8115H23.9906L23.9907 16.4623H28.6862C29.0347 16.4628 29.3692 16.6006 29.6155 16.8456C29.8616 17.0907 29.9999 17.423 30 17.7693V28.3098C29.9992 28.6558 29.8605 28.9879 29.6143 29.2324C29.3682 29.4768 29.0341 29.6141 28.6862 29.6146H26.3265C26.0269 29.6155 25.736 29.5144 25.5025 29.3279C25.2683 29.1408 25.1055 28.8782 25.0424 28.5862L22.7056 18.0503L22.6815 17.9058C22.6658 17.7605 22.6753 17.6132 22.709 17.4701C22.754 17.2796 22.8414 17.1013 22.9653 16.9492C23.0885 16.7969 23.2447 16.674 23.422 16.5897C23.5995 16.5053 23.7939 16.462 23.9907 16.4623L23.9906 16.8115ZM26.5439 28.03H28.4024V18.0412H24.3341L26.5439 28.03ZM28.7542 28.3059L28.748 28.3337C28.7443 28.3426 28.7394 28.3512 28.7324 28.3582C28.7185 28.372 28.6995 28.3798 28.6798 28.3798H26.3213C26.3042 28.3799 26.2876 28.3742 26.2742 28.3635C26.2609 28.3529 26.2516 28.338 26.2481 28.3213L23.9162 17.7817C23.9139 17.7709 23.9142 17.7597 23.9168 17.749L23.9318 17.7199C23.9386 17.7108 23.9475 17.7035 23.9577 17.6985L23.9907 17.6908L28.6798 17.6912C28.6897 17.6912 28.6994 17.6931 28.7085 17.6969C28.7176 17.7007 28.7259 17.7063 28.7328 17.7132C28.7397 17.7202 28.7452 17.7285 28.7489 17.7376C28.7525 17.7467 28.7544 17.7564 28.7542 17.7662V28.3059Z" fill="#1C274C"/>
<path d="M16.9221 22.5647L16.3158 23.21L21.6819 28.1909L22.2881 27.5456L16.9221 22.5647Z" fill="#1C274C"/>
<path d="M22.2881 27.5456L16.9221 22.5647L16.3158 23.21L21.6819 28.1909L22.2881 27.5456ZM22.7849 27.5292L21.6993 28.6849L15.8192 23.2269L16.9049 22.0712L22.7849 27.5292Z" fill="#1C274C"/>
<path d="M15.8195 24.9343L15.2176 25.5837L19.8744 29.8477L20.4763 29.1982L15.8195 24.9343Z" fill="#1C274C"/>
<path d="M20.4763 29.1982L15.8195 24.9343L15.2176 25.5837L19.8744 29.8477L20.4763 29.1982ZM20.9729 29.1785L19.8952 30.3415L14.7212 25.604L15.7989 24.441L20.9729 29.1785Z" fill="#1C274C"/>
<path d="M14.6398 27.1655L14.0402 27.817L18.0606 31.4726L18.6602 30.8211L14.6398 27.1655Z" fill="#1C274C"/>
<path d="M18.6602 30.8211L14.6398 27.1655L14.0402 27.817L18.0606 31.4726L18.6602 30.8211ZM19.1562 30.7991L18.0826 31.9659L13.5438 27.839L14.6175 26.6723L19.1562 30.7991Z" fill="#1C274C"/>
<path d="M25.3884 7.68578H18.8027V0.790717H19.691V6.80279H25.3884V7.68578Z" fill="#1C274C"/>
<path d="M25.3884 6.80279H19.691V0.790717H18.8027V7.68578H25.3884V6.80279ZM20.0421 6.45341H25.7401V8.03573H18.4514V0.441491H20.0421V6.45341Z" fill="#1C274C"/>
</svg>
