<svg width="101" height="101" viewBox="0 0 101 101" fill="none" xmlns="http://www.w3.org/2000/svg">
<rect x="0.955078" y="0.5" width="100" height="100" rx="50" fill="#D8DAE0"/>
<path d="M30.9551 50.5C30.9551 39.4543 39.9094 30.4999 50.9551 30.4999C51.9019 30.4999 52.6694 31.2675 52.6694 32.2142C52.6694 33.161 51.9019 33.9285 50.9551 33.9285C41.803 33.9285 34.3837 41.3478 34.3837 50.5C34.3837 59.6522 41.803 67.0715 50.9551 67.0715C51.9019 67.0715 52.6694 67.839 52.6694 68.7858C52.6694 69.7326 51.9019 70.5001 50.9551 70.5001C39.9094 70.5001 30.9551 61.5458 30.9551 50.5Z" fill="#1C274C"/>
<path d="M61.1717 42.4308C61.8412 41.7613 62.9263 41.7613 63.5958 42.4308L70.453 49.2879C71.1224 49.9574 71.1224 51.0426 70.453 51.7121L63.5958 58.5692C62.9263 59.2387 61.8412 59.2387 61.1717 58.5692C60.5022 57.8998 60.5022 56.8146 61.1717 56.1451L65.1025 52.2143H46.3837C45.4369 52.2143 44.6694 51.4468 44.6694 50.5C44.6694 49.5532 45.4369 48.7857 46.3837 48.7857H65.1025L61.1717 44.8549L61.0534 44.7254C60.5041 44.0521 60.544 43.0584 61.1717 42.4308Z" fill="#1C274C"/>
</svg>
