<svg width="15" height="15" viewBox="0 0 15 15" fill="none" xmlns="http://www.w3.org/2000/svg">
<path d="M8.89533 13.9535H6.10464V15H8.89533V13.9535ZM1.04651 8.89536V6.10467H4.49877e-07V8.89536H1.04651ZM13.9535 8.59041V8.89536H15V8.59041H13.9535ZM9.5171 2.345L12.279 4.83074L12.9791 4.05287L10.2172 1.56713L9.5171 2.345ZM15 8.59041C15 7.41246 15.0105 6.66665 14.7133 5.9993L13.7573 6.42504C13.9429 6.84176 13.9535 7.32002 13.9535 8.59041H15ZM12.279 4.83074C13.2233 5.68056 13.5718 6.00839 13.7573 6.42504L14.7133 5.9993C14.4161 5.33194 13.8547 4.84086 12.9791 4.05287L12.279 4.83074ZM6.12543 1.04654C7.22901 1.04654 7.64545 1.05462 8.01661 1.19705L8.39154 0.220012C7.79726 -0.0080437 7.14975 3.53675e-05 6.12543 3.53675e-05V1.04654ZM10.2172 1.56713C9.45954 0.885229 8.98582 0.448039 8.39154 0.220012L8.01661 1.19705C8.38791 1.33952 8.70103 1.61052 9.5171 2.345L10.2172 1.56713ZM6.10464 13.9535C4.7743 13.9535 3.82918 13.9524 3.11221 13.856C2.41029 13.7616 2.00589 13.5846 1.71062 13.2894L0.970631 14.0294C1.49275 14.5515 2.1548 14.7832 2.97277 14.8932C3.77568 15.0011 4.80388 15 6.10464 15V13.9535ZM4.49877e-07 8.89536C4.49877e-07 10.1961 -0.00110881 11.2243 0.106835 12.0272C0.216809 12.8452 0.44852 13.5073 0.970631 14.0294L1.71062 13.2894C1.41536 12.9941 1.23838 12.5897 1.14402 11.8878C1.04762 11.1708 1.04651 10.2257 1.04651 8.89536H4.49877e-07ZM8.89533 15C10.1961 15 11.2243 15.0011 12.0272 14.8932C12.8451 14.7832 13.5072 14.5515 14.0294 14.0294L13.2893 13.2894C12.9941 13.5846 12.5896 13.7616 11.8878 13.856C11.1708 13.9524 10.2257 13.9535 8.89533 13.9535V15ZM13.9535 8.89536C13.9535 10.2257 13.9523 11.1708 13.8559 11.8878C13.7616 12.5897 13.5846 12.9941 13.2893 13.2894L14.0294 14.0294C14.5514 13.5073 14.7831 12.8452 14.8932 12.0272C15.0011 11.2243 15 10.1961 15 8.89536H13.9535ZM1.04651 6.10467C1.04651 4.77434 1.04762 3.82922 1.14402 3.11225C1.23838 2.41033 1.41536 2.00592 1.71062 1.71066L0.970631 0.970666C0.44852 1.49278 0.216809 2.15483 0.106835 2.97281C-0.00110881 3.77572 4.49877e-07 4.80392 4.49877e-07 6.10467H1.04651ZM6.12543 3.53675e-05C4.8177 3.53675e-05 3.78447 -0.00106698 2.97827 0.106828C2.15743 0.216691 1.49315 0.448151 0.970631 0.970666L1.71062 1.71066C2.00548 1.41581 2.41113 1.23858 3.1171 1.14409C3.83772 1.04765 4.78821 1.04654 6.12543 1.04654V3.53675e-05Z" fill="#1C274C"/>
<path d="M7.6744 2.61631V0.872126H8.72091V2.61631C8.72091 3.45331 8.72211 4.02865 8.78019 4.46064C8.83625 4.87744 8.93663 5.08174 9.0786 5.22372C9.22061 5.3657 9.42493 5.46608 9.84168 5.52214C10.2737 5.58022 10.849 5.58142 11.686 5.58142H14.4767V6.62793H11.686C10.8787 6.62793 10.2206 6.62872 9.70269 6.55911C9.1697 6.48746 8.70756 6.33248 8.33869 5.96364C7.96985 5.59478 7.81487 5.13262 7.74321 4.59963C7.67361 4.08173 7.6744 3.42363 7.6744 2.61631Z" fill="#1C274C"/>
<path d="M4.53487 8.54653C4.53487 8.25754 4.76914 8.02327 5.05813 8.02327C5.34711 8.02327 5.58138 8.25754 5.58138 8.54653V10.8269L6.09578 10.3452C6.30661 10.1476 6.63737 10.1582 6.83501 10.3691C7.03266 10.5799 7.02199 10.9106 6.81117 11.1083L5.41582 12.4164C5.21455 12.6051 4.90171 12.6051 4.70044 12.4164L3.30509 11.1083C3.09426 10.9106 3.08359 10.5799 3.28124 10.3691C3.46651 10.1714 3.76878 10.1496 3.9796 10.3105L4.02048 10.3452L4.53487 10.8269V8.54653Z" fill="#1C274C"/>
</svg>
