<svg width="23" height="22" viewBox="0 0 23 22" fill="none" xmlns="http://www.w3.org/2000/svg">
<path d="M13.375 20.2501H9.375V21.7501H13.375V20.2501ZM2.125 13.0001V9.00005H0.625001V13.0001H2.125ZM20.625 12.563V13.0001H22.125V12.563H20.625ZM14.2662 3.61117L18.225 7.17407L19.2284 6.05912L15.2697 2.49623L14.2662 3.61117ZM22.125 12.563C22.125 10.8745 22.1401 9.80555 21.7141 8.84902L20.3439 9.45925C20.6099 10.0566 20.625 10.7421 20.625 12.563H22.125ZM18.225 7.17407C19.5784 8.39215 20.0779 8.86204 20.3439 9.45925L21.7141 8.84902C21.2881 7.89246 20.4834 7.18858 19.2284 6.05912L18.225 7.17407ZM9.4048 1.75005C10.9866 1.75005 11.5835 1.76163 12.1155 1.96578L12.6529 0.565351C11.8011 0.238471 10.873 0.250051 9.4048 0.250051V1.75005ZM15.2697 2.49623C14.1837 1.51883 13.5047 0.892191 12.6529 0.565351L12.1155 1.96578C12.6477 2.16998 13.0965 2.55841 14.2662 3.61117L15.2697 2.49623ZM9.375 20.2501C7.46818 20.2501 6.11351 20.2485 5.08585 20.1103C4.07976 19.9751 3.50011 19.7214 3.0769 19.2982L2.01624 20.3589C2.76461 21.1072 3.71355 21.4393 4.88598 21.597C6.03682 21.7517 7.51058 21.7501 9.375 21.7501V20.2501ZM0.625001 13.0001C0.625001 14.8645 0.623411 16.3383 0.778131 17.4891C0.935761 18.6615 1.26788 19.6105 2.01624 20.3589L3.0769 19.2982C2.65369 18.875 2.40002 18.2953 2.26476 17.2893C2.12659 16.2616 2.125 14.9069 2.125 13.0001H0.625001ZM13.375 21.7501C15.2394 21.7501 16.7132 21.7517 17.864 21.597C19.0364 21.4393 19.9854 21.1072 20.7338 20.3589L19.6731 19.2982C19.2499 19.7214 18.6702 19.9751 17.6642 20.1103C16.6365 20.2485 15.2818 20.2501 13.375 20.2501V21.7501ZM20.625 13.0001C20.625 14.9069 20.6234 16.2616 20.4852 17.2893C20.35 18.2953 20.0963 18.875 19.6731 19.2982L20.7338 20.3589C21.4821 19.6105 21.8142 18.6615 21.9719 17.4891C22.1266 16.3383 22.125 14.8645 22.125 13.0001H20.625ZM2.125 9.00005C2.125 7.09323 2.12659 5.73856 2.26476 4.7109C2.40002 3.70481 2.65369 3.12516 3.0769 2.70195L2.01624 1.64129C1.26788 2.38966 0.935761 3.3386 0.778131 4.51103C0.623411 5.66187 0.625001 7.13563 0.625001 9.00005H2.125ZM9.4048 0.250051C7.53038 0.250051 6.04942 0.248471 4.89387 0.403121C3.71732 0.560591 2.76519 0.892351 2.01624 1.64129L3.0769 2.70195C3.49953 2.27933 4.08096 2.0253 5.09285 1.88987C6.12575 1.75163 7.48811 1.75005 9.4048 1.75005V0.250051Z" fill="#777777"/>
<path d="M11.625 4.00005V1.50005H13.125V4.00005C13.125 5.19976 13.1267 6.02441 13.21 6.64361C13.2903 7.24101 13.4342 7.53385 13.6377 7.73736C13.8412 7.94086 14.1341 8.08474 14.7314 8.16509C15.3506 8.24834 16.1753 8.25005 17.375 8.25005H21.375V9.75005H17.375C16.2178 9.75005 15.2746 9.75119 14.5322 9.65142C13.7683 9.54871 13.1059 9.32657 12.5771 8.7979C12.0485 8.26921 11.8263 7.60677 11.7236 6.84282C11.6239 6.10049 11.625 5.15722 11.625 4.00005Z" fill="#777777"/>
</svg>
