<svg width="22" height="22" viewBox="0 0 22 22" fill="none" xmlns="http://www.w3.org/2000/svg">
<path d="M20.5 11.2041C20.5 10.046 20.4993 9.2286 20.4385 8.58105C20.3791 7.94867 20.2665 7.53566 20.0732 7.18262C19.8807 6.83085 19.5989 6.52139 19.1094 6.14648C18.6062 5.76114 17.9315 5.34143 16.9707 4.74512L14.9707 3.50391C13.9551 2.87358 13.2406 2.43194 12.6436 2.1416C12.0619 1.85873 11.6498 1.75 11.25 1.75C10.8502 1.75 10.4381 1.85873 9.85645 2.1416C9.25945 2.43194 8.54492 2.87358 7.5293 3.50391L5.5293 4.74512C4.56849 5.34142 3.8938 5.76114 3.39063 6.14648C2.9011 6.52139 2.61931 6.83086 2.42676 7.18262C2.23351 7.53566 2.12095 7.94867 2.06152 8.58105C2.00068 9.2286 2 10.046 2 11.2041V12.7246C2 14.6954 2.00196 16.1009 2.14063 17.168C2.27685 18.216 2.53319 18.8242 2.96094 19.2666C3.38524 19.7055 3.96274 19.9662 4.96387 20.1055C5.98948 20.2481 7.34247 20.25 9.25 20.25H13.25C15.1575 20.25 16.5105 20.2481 17.5361 20.1055C18.5373 19.9662 19.1148 19.7055 19.5391 19.2666C19.9668 18.8242 20.2232 18.216 20.3594 17.168C20.498 16.1009 20.5 14.6954 20.5 12.7246V11.2041ZM22 12.7246C22 14.6543 22.0018 16.1751 21.8477 17.3613C21.691 18.5667 21.361 19.5402 20.6172 20.3096C19.87 21.0823 18.9192 21.4281 17.7422 21.5918C16.5893 21.7521 15.1135 21.75 13.25 21.75H9.25C7.38644 21.75 5.91068 21.7521 4.75781 21.5918C3.58083 21.4281 2.62999 21.0823 1.88281 20.3096C1.13901 19.5402 0.809013 18.5667 0.652345 17.3613C0.498192 16.1751 0.500001 14.6543 0.500001 12.7246V11.2041C0.500001 10.0738 0.499408 9.17422 0.56836 8.44043C0.638741 7.69167 0.78549 7.05825 1.11133 6.46289C1.4379 5.86628 1.88994 5.40685 2.47852 4.95605C3.05366 4.51559 3.80208 4.05174 4.73828 3.4707L6.73828 2.22949C7.72778 1.61538 8.51762 1.12394 9.2002 0.791992C9.89817 0.452574 10.5419 0.25 11.25 0.25C11.9581 0.25 12.6018 0.452575 13.2998 0.791992C13.9824 1.12394 14.7722 1.61538 15.7617 2.22949L17.7617 3.4707C18.6979 4.05175 19.4463 4.51559 20.0215 4.95605C20.6101 5.40686 21.0621 5.86628 21.3887 6.46289C21.7145 7.05825 21.8613 7.69167 21.9316 8.44043C22.0006 9.17422 22 10.0738 22 11.2041V12.7246Z" fill="#1C274C"/>
<path d="M10.5 17V14C10.5 13.5858 10.8358 13.25 11.25 13.25C11.6642 13.25 12 13.5858 12 14V17C12 17.4142 11.6642 17.75 11.25 17.75C10.8358 17.75 10.5 17.4142 10.5 17Z" fill="#1C274C"/>
</svg>
