<svg width="21" height="21" viewBox="0 0 21 21" fill="none" xmlns="http://www.w3.org/2000/svg">
<path fill-rule="evenodd" clip-rule="evenodd" d="M0.7692 6.32274C0.25 7.27128 0.25 8.41549 0.25 10.7039V12.225C0.25 16.1258 0.25 18.0763 1.42157 19.2881C2.59315 20.5 4.47876 20.5 8.25 20.5H12.25C16.0212 20.5 17.9069 20.5 19.0784 19.2881C20.25 18.0763 20.25 16.1258 20.25 12.225V10.7039C20.25 8.41549 20.25 7.27128 19.7308 6.32274C19.2116 5.37421 18.2631 4.78551 16.366 3.60812L14.366 2.36687C12.3606 1.12229 11.3579 0.5 10.25 0.5C9.1421 0.5 8.13939 1.12229 6.13403 2.36687L4.13403 3.60813C2.23695 4.78551 1.2884 5.37421 0.7692 6.32274ZM9.5 16.5C9.5 16.9142 9.8358 17.25 10.25 17.25C10.6642 17.25 11 16.9142 11 16.5V13.5C11 13.0858 10.6642 12.75 10.25 12.75C9.8358 12.75 9.5 13.0858 9.5 13.5V16.5Z" fill="#1C274C"/>
</svg>
