<svg width="28" height="28" viewBox="0 0 28 28" fill="none" xmlns="http://www.w3.org/2000/svg">
<path d="M14.3443 0.00435171C16.0655 0.0466723 17.7651 0.406557 19.3575 1.06617C21.056 1.76968 22.5996 2.80051 23.8996 4.1004C25.1996 5.40035 26.2302 6.94415 26.9338 8.6425C27.6373 10.341 28 12.1621 28 14.0005C28 15.8389 27.6373 17.6592 26.9338 19.3575C26.2302 21.056 25.1996 22.5996 23.8996 23.8996C22.5996 25.1996 21.056 26.2302 19.3575 26.9338C17.6592 27.6373 15.8389 28 14.0005 28C12.1621 28 10.341 27.6373 8.6425 26.9338C6.94415 26.2302 5.40035 25.1996 4.1004 23.8996C2.80051 22.5996 1.76969 21.056 1.06617 19.3575C0.362686 17.6592 4.74281e-05 15.8388 0 14.0005C0 12.1621 0.362612 10.341 1.06617 8.6425C1.76971 6.94405 2.80047 5.40035 4.1004 4.1004C5.40034 2.80047 6.94405 1.76973 8.6425 1.06617C10.341 0.362626 12.1621 0 14.0005 0L14.3443 0.00435171ZM9.82181 15.0025C9.86367 16.3131 9.98553 17.5988 10.1863 18.8103C10.4383 20.3313 10.8041 21.6918 11.2546 22.8182C11.7083 23.9524 12.2214 24.783 12.732 25.3117C13.1755 25.7709 13.5617 25.9499 13.8722 25.9873L14.0005 25.9949C14.3301 25.9948 14.7616 25.8359 15.268 25.3117C15.7786 24.7829 16.2918 23.9523 16.7454 22.8182L16.9107 22.3852C17.2862 21.3494 17.5932 20.1412 17.8137 18.8103C18.0145 17.5987 18.1363 16.3131 18.1782 15.0025H9.82181ZM2.05074 15.0025C2.15406 16.2341 2.44441 17.445 2.91891 18.5905C3.52169 20.0457 4.40535 21.3683 5.51906 22.482C6.63256 23.5955 7.95463 24.4783 9.40949 25.0811C9.70369 25.2029 10.0039 25.3097 10.3059 25.4075C9.9689 24.8576 9.66315 24.2383 9.39317 23.5634C8.87825 22.2761 8.47893 20.7705 8.20842 19.1377C7.98917 17.8145 7.85709 16.4189 7.81459 15.0025H2.05074ZM20.1854 15.0025C20.1429 16.4188 20.0119 17.8146 19.7927 19.1377C19.5222 20.7705 19.1219 22.276 18.6068 23.5634C18.3368 24.2385 18.0301 24.8575 17.693 25.4075C17.9954 25.3096 18.2959 25.2042 18.5905 25.0822C20.0458 24.4793 21.3683 23.5958 22.482 22.482C23.5958 21.3683 24.4793 20.0458 25.0822 18.5905C25.5567 17.445 25.847 16.2341 25.9503 15.0025H20.1854ZM17.693 2.59144C18.0305 3.14185 18.3366 3.76192 18.6068 4.43766C19.1218 5.72496 19.5222 7.22972 19.7927 8.86226C20.0119 10.1854 20.1429 11.5812 20.1854 12.9975H25.9503C25.847 11.7661 25.5555 10.556 25.0811 9.41058C24.4783 7.95542 23.5956 6.63275 22.482 5.51906C21.3683 4.40534 20.0457 3.52168 18.5905 2.91891C18.2958 2.79682 17.9955 2.68938 17.693 2.59144ZM14.0005 2.00614C13.6708 2.00614 13.2387 2.16471 12.732 2.68936C12.2216 3.21797 11.7082 4.04783 11.2546 5.1818C10.804 6.30827 10.4383 7.66973 10.1863 9.19081C9.9856 10.4021 9.86367 11.6872 9.82181 12.9975H18.1782C18.1363 11.6872 18.0144 10.4022 17.8137 9.19081C17.5617 7.6697 17.196 6.30821 16.7454 5.1818C16.2918 4.04781 15.7785 3.21797 15.268 2.68936C14.7615 2.16489 14.3302 2.00625 14.0005 2.00614ZM10.3049 2.59253C10.0033 2.69022 9.70437 2.79723 9.41058 2.91891C7.95534 3.52169 6.63286 4.40527 5.51906 5.51906C4.40527 6.63286 3.52168 7.95535 2.91891 9.41058C2.44453 10.5559 2.15407 11.7661 2.05074 12.9975H7.81459C7.8571 11.5813 7.98919 10.1854 8.20842 8.86226C8.47892 7.22978 8.87831 5.72487 9.39317 4.43766C9.66314 3.76274 9.96778 3.14247 10.3049 2.59253Z" fill="#1C274C"/>
</svg>
