<svg width="20" height="23" viewBox="0 0 20 23" fill="none" xmlns="http://www.w3.org/2000/svg">
<path d="M1.50011 5.21193C1.50011 4.58655 1.49652 4.16319 1.57043 3.79592C1.88035 2.25593 3.15317 1.09182 4.72668 0.813494C5.10178 0.747212 5.53639 0.750017 6.21007 0.750017C6.5061 0.750017 6.69899 0.749109 6.88781 0.765642C7.66861 0.83409 8.41498 1.1227 9.02746 1.59865C9.17588 1.71406 9.31404 1.84452 9.52257 2.04006L9.963 2.45314C10.6449 3.09248 10.8884 3.3117 11.1671 3.45705C11.3325 3.54331 11.5081 3.61112 11.6915 3.66017C12.0041 3.74364 12.3502 3.75002 13.3126 3.75002H13.6114C14.6459 3.75002 15.4883 3.74865 16.1544 3.82717C16.8353 3.90744 17.4368 4.08082 17.9386 4.50392C18.0217 4.57397 18.101 4.64846 18.1759 4.72658C18.6356 5.20592 18.8278 5.7892 18.9161 6.44728C19.0013 7.08245 19.0001 7.88246 19.0001 8.84865V11H17.5001V8.84865C17.5001 7.84056 17.4985 7.15888 17.4298 6.6465C17.3642 6.15753 17.2484 5.92681 17.0929 5.76467C17.0547 5.72489 17.0145 5.68641 16.9718 5.65041C16.7892 5.49644 16.5217 5.38141 15.9786 5.3174C15.4208 5.25164 14.6829 5.25002 13.6114 5.25002H13.3126C12.54 5.25002 12.0012 5.25415 11.5118 5.15724L11.3048 5.10939C11.0159 5.03219 10.7366 4.92371 10.4728 4.78615C9.97007 4.52389 9.56059 4.13095 8.93761 3.54689L8.49718 3.13478C8.26862 2.92046 8.18775 2.84536 8.10656 2.78224C7.72792 2.4881 7.25775 2.30368 6.75695 2.25978C6.64865 2.2503 6.5322 2.25002 6.21007 2.25002C5.47198 2.25002 5.2003 2.25338 4.98742 2.29103C3.97208 2.47068 3.21967 3.20472 3.04113 4.09181C3.00411 4.27575 3.00012 4.51407 3.00011 5.21193V11H1.50011V5.21193Z" fill="#1C274C"/>
<path d="M12.2501 15.75C12.6643 15.75 13.0001 16.0858 13.0001 16.5C13.0001 16.9142 12.6643 17.25 12.2501 17.25H8.25011C7.8359 17.25 7.50011 16.9142 7.50011 16.5C7.50011 16.0858 7.8359 15.75 8.25011 15.75H12.2501Z" fill="#1C274C"/>
<path d="M13.545 9.75002C14.859 9.75002 15.9145 9.74911 16.7413 9.85158C17.5835 9.95599 18.3029 10.1791 18.88 10.7129C19.1445 10.9575 19.3727 11.2398 19.5568 11.5508C19.9556 12.2247 20.0373 12.9841 19.9864 13.8506C19.9362 14.7051 19.7471 15.7737 19.5118 17.1133C19.3427 18.0759 19.2071 18.8532 19.0343 19.4678C18.8577 20.0955 18.6241 20.6272 18.2159 21.0723C18.0226 21.2831 17.8056 21.4708 17.5695 21.6309C17.068 21.9705 16.5113 22.1163 15.8751 22.1846C15.2555 22.2511 14.4886 22.25 13.545 22.25H6.95519C6.01165 22.25 5.2447 22.2511 4.62511 22.1846C3.98897 22.1163 3.43319 21.9705 2.93176 21.6309C2.69545 21.4708 2.47781 21.2832 2.28429 21.0723C1.87611 20.6272 1.64248 20.0955 1.46593 19.4678C1.29311 18.8532 1.1575 18.0758 0.988396 17.1133C0.753052 15.7737 0.563994 14.7051 0.513786 13.8506C0.462919 12.9841 0.544626 12.2247 0.943474 11.5508C1.12759 11.2398 1.35587 10.9575 1.62023 10.7129C2.1973 10.1791 2.91674 9.95599 3.7589 9.85158C4.58575 9.74911 5.6412 9.75002 6.95519 9.75002H13.545ZM6.95519 11.25C5.60201 11.25 4.65653 11.2515 3.94347 11.3399C3.24639 11.4263 2.88669 11.5843 2.63879 11.8135C2.48203 11.9585 2.34542 12.1281 2.23449 12.3154C2.0554 12.6182 1.96768 13.0273 2.01086 13.7627C2.05479 14.5103 2.22424 15.4787 2.46593 16.8545C2.64027 17.8468 2.76165 18.5364 2.90929 19.0615C3.05323 19.5734 3.20303 19.855 3.38976 20.0586C3.50496 20.1842 3.6337 20.2946 3.77258 20.3887C3.99422 20.5388 4.28078 20.6392 4.78527 20.6934C5.30636 20.7493 5.97924 20.75 6.95519 20.75H13.545C14.521 20.75 15.1939 20.7493 15.715 20.6934C16.2196 20.6392 16.506 20.5389 16.7277 20.3887C16.8665 20.2946 16.9952 20.1842 17.1105 20.0586C17.2972 19.855 17.447 19.5734 17.5909 19.0615C17.7386 18.5364 17.86 17.8468 18.0343 16.8545C18.276 15.4787 18.4454 14.5103 18.4894 13.7627C18.5325 13.0272 18.4448 12.6182 18.2657 12.3154C18.1549 12.1281 18.0182 11.9594 17.8614 11.8145C17.6136 11.5853 17.2538 11.4263 16.5568 11.3399C15.8437 11.2515 14.8982 11.25 13.545 11.25H6.95519Z" fill="#1C274C"/>
</svg>
