<svg width="20" height="20" viewBox="0 0 20 20" fill="none" xmlns="http://www.w3.org/2000/svg">
<path d="M13.8194 7.95182C15.1489 7.95177 16.2817 7.95172 17.186 8.054C17.3395 8.0714 17.4925 8.0923 17.6443 8.1178C18.1764 8.2071 18.6947 8.3533 19.1742 8.6063V7.75579C19.1742 6.84687 19.1743 6.09279 19.0889 5.49156C18.9989 4.85704 18.8026 4.29458 18.3334 3.83245C18.2569 3.75707 18.1761 3.68552 18.0915 3.61807C17.5797 3.21023 16.9662 3.04345 16.2717 2.96608C15.6026 2.89155 14.7597 2.89157 13.7265 2.89158H13.3737C12.3916 2.89158 12.0395 2.88587 11.7206 2.80533C11.5333 2.75802 11.3535 2.69195 11.1848 2.60878C10.9005 2.46867 10.6528 2.25761 9.9572 1.64132L9.4831 1.22128C9.2841 1.04489 9.1482 0.924499 9.0026 0.817549C8.3779 0.358789 7.61732 0.0813192 6.82098 0.0153392C6.63555 -2.08225e-05 6.44632 -1.08857e-05 6.16308 1.91143e-05L6.04666 9.10068e-06C5.40599 -0.000100899 4.98317 -0.000171009 4.61604 0.061199C3.01119 0.329469 1.71344 1.45143 1.39735 2.93575C1.32543 3.27344 1.32554 3.66035 1.32571 4.21853L1.32573 8.6063C1.80523 8.3533 2.32357 8.2071 2.8556 8.1178C3.00746 8.0923 3.16043 8.0714 3.31394 8.054C4.21822 7.95172 5.35107 7.95177 6.68055 7.95182H13.8194Z" fill="#1C274C"/>
<path fill-rule="evenodd" clip-rule="evenodd" d="M1.10791 10.7788C0.49772 11.7202 0.74956 13.0292 1.25323 15.6471C1.6158 17.5317 1.79709 18.474 2.42523 19.0993C2.5882 19.2615 2.77054 19.4053 2.9686 19.5278C3.73195 20 4.74539 20 6.77227 20H13.7277C15.7546 20 16.7681 20 17.5314 19.5278C17.7295 19.4053 17.9118 19.2615 18.0748 19.0993C18.7029 18.474 18.8842 17.5317 19.2468 15.6471C19.7504 13.0292 20.0023 11.7202 19.3921 10.7788C19.2364 10.5386 19.0443 10.3211 18.8221 10.1334C17.9511 9.3976 16.5433 9.3976 13.7277 9.3976H6.77227C3.95667 9.3976 2.54888 9.3976 1.67792 10.1334C1.45566 10.3211 1.26363 10.5386 1.10791 10.7788ZM7.44518 15.1807C7.44518 14.7815 7.7876 14.4578 8.2101 14.4578H12.2898C12.7122 14.4578 13.0547 14.7815 13.0547 15.1807C13.0547 15.58 12.7122 15.9036 12.2898 15.9036H8.2101C7.7876 15.9036 7.44518 15.58 7.44518 15.1807Z" fill="#1C274C"/>
</svg>
