<svg width="28" height="28" viewBox="0 0 28 28" fill="none" xmlns="http://www.w3.org/2000/svg">
<path d="M25.9949 19.1987C25.9949 17.3328 25.9927 16.0341 25.8611 15.0547C25.7333 14.1043 25.5 13.6057 25.1464 13.252C24.7927 12.8984 24.2943 12.6651 23.3437 12.5373C22.3642 12.4056 21.065 12.4035 19.1987 12.4035H8.80134C6.93492 12.4035 5.63578 12.4056 4.65633 12.5373C3.70586 12.6651 3.20729 12.8984 2.85364 13.252C2.50015 13.6057 2.26772 14.1045 2.13995 15.0547C2.00834 16.0341 2.00614 17.3327 2.00614 19.1987C2.00614 21.065 2.00828 22.3642 2.13995 23.3437C2.26774 24.2941 2.50005 24.7927 2.85364 25.1464C3.20729 25.5 3.70583 25.7333 4.65633 25.8611C5.63578 25.9928 6.93492 25.9949 8.80134 25.9949H19.1987C21.065 25.9949 22.3642 25.9928 23.3437 25.8611C24.2943 25.7333 24.7927 25.5001 25.1464 25.1464C25.5001 24.7927 25.7333 24.2943 25.8611 23.3437C25.9928 22.3642 25.9949 21.065 25.9949 19.1987ZM8.8133 18.1967C9.3668 18.1968 9.81509 18.6452 9.81529 19.1987C9.81529 19.7523 9.36692 20.2016 8.8133 20.2017H8.80134C8.2476 20.2017 7.79827 19.7524 7.79827 19.1987C7.79846 18.6451 8.24772 18.1967 8.80134 18.1967H8.8133ZM14.0005 18.1967C14.554 18.1969 15.0023 18.6452 15.0025 19.1987C15.0025 19.7523 14.5541 20.2015 14.0005 20.2017H13.9886C13.4348 20.2017 12.9855 19.7524 12.9855 19.1987C12.9857 18.6451 13.435 18.1967 13.9886 18.1967H14.0005ZM19.1987 18.1967C19.7523 18.1967 20.2015 18.6451 20.2017 19.1987C20.2017 19.7524 19.7524 20.2017 19.1987 20.2017H19.1878C18.634 20.2017 18.1847 19.7524 18.1847 19.1987C18.1849 18.6451 18.6342 18.1967 19.1878 18.1967H19.1987ZM20.7957 8.80134C20.7957 5.04833 17.7535 2.00634 14.0005 2.00614C10.2474 2.00614 7.20426 5.04821 7.20426 8.80134V10.4039C7.70295 10.3994 8.23492 10.3984 8.80134 10.3984H19.1987C19.7649 10.3984 20.2972 10.3994 20.7957 10.4039V8.80134ZM22.8008 10.4691C23.0866 10.4896 23.3569 10.5154 23.6113 10.5496C24.784 10.7073 25.7757 11.0453 26.5639 11.8334C27.3523 12.6218 27.69 13.6141 27.8477 14.7871C28.0015 15.9312 28 17.3891 28 19.1987C28 21.0084 28.0015 22.4672 27.8477 23.6113C27.69 24.7841 27.3522 25.7757 26.5639 26.5639C25.7757 27.3522 24.7841 27.69 23.6113 27.8477C22.4672 28.0015 21.0084 28 19.1987 28H8.80134C6.99181 28 5.53386 28.0015 4.38979 27.8477C3.21682 27.69 2.22442 27.3523 1.43607 26.5639C0.647905 25.7757 0.31002 24.784 0.15231 23.6113C-0.00151346 22.4672 5.64264e-07 21.0084 5.64264e-07 19.1987C2.79971e-07 17.3891 -0.00149826 15.9312 0.15231 14.7871C0.310013 13.6141 0.647719 12.6218 1.43607 11.8334C2.22439 11.0452 3.21692 10.7073 4.38979 10.5496C4.64395 10.5155 4.91365 10.4896 5.19921 10.4691V8.80134C5.19921 3.94073 9.13994 0 14.0005 0C18.861 0.000196358 22.8008 3.94085 22.8008 8.80134V10.4691Z" fill="#1C274C"/>
</svg>
