<svg width="28" height="28" viewBox="0 0 28 28" fill="none" xmlns="http://www.w3.org/2000/svg">
<path d="M25.9949 14.0005C25.9949 7.3763 20.6247 2.00633 14.0005 2.00614C7.37617 2.00614 2.00614 7.37617 2.00614 14.0005C2.00624 17.4141 3.43188 20.4937 5.7225 22.6789C6.05885 21.6303 6.61791 20.6672 7.55783 19.9015C8.96494 18.7552 11.0483 18.1967 14.0005 18.1967C16.9527 18.1967 19.0362 18.7551 20.4433 19.9015C21.3828 20.6671 21.9401 21.6306 22.2764 22.6789C24.5674 20.4937 25.9948 17.4144 25.9949 14.0005ZM14.0005 20.2017C11.2496 20.2017 9.71369 20.7314 8.82418 21.4561C8.08265 22.0602 7.66597 22.9034 7.44143 24.0421C9.32622 25.276 11.5781 25.9949 14.0005 25.9949C16.4227 25.9949 18.6738 25.2757 20.5586 24.0421C20.3341 22.9036 19.9181 22.0602 19.1769 21.4561C18.2875 20.7315 16.7513 20.2018 14.0005 20.2017ZM16.8966 11.4004C16.8964 9.80099 15.6 8.50453 14.0005 8.50433C12.4009 8.50433 11.1036 9.80087 11.1034 11.4004C11.1034 13.0001 12.4008 14.2975 14.0005 14.2975C15.6001 14.2974 16.8966 13 16.8966 11.4004ZM28 14.0005C27.9999 18.6518 25.7302 22.7731 22.2427 25.3172C19.9304 27.0038 17.0801 27.9999 14.0005 28C10.9208 28 8.06968 27.004 5.75731 25.3172C2.26984 22.7731 0.000117486 18.6518 0 14.0005C0 6.26869 6.26869 0 14.0005 0C21.7322 0.000195218 28 6.26881 28 14.0005ZM18.9017 11.4004C18.9017 14.1075 16.7076 16.3024 14.0005 16.3026C11.2933 16.3026 9.09834 14.1076 9.09834 11.4004C9.09854 8.69341 11.2934 6.49928 14.0005 6.49928C16.7075 6.49948 18.9015 8.69353 18.9017 11.4004Z" fill="#1C274C"/>
</svg>
