<svg width="22" height="23" viewBox="0 0 22 23" fill="none" xmlns="http://www.w3.org/2000/svg">
<path d="M20 11.5C20 6.39137 15.8586 2.25 10.75 2.25C5.64136 2.25 1.5 6.39136 1.5 11.5C1.5 14.1451 2.61034 16.5302 4.3916 18.2168C4.64826 17.4003 5.0777 16.6505 5.80664 16.0566C6.88374 15.1793 8.48078 14.75 10.75 14.75C13.0192 14.75 14.6163 15.1792 15.6934 16.0566C16.4222 16.6504 16.8507 17.4004 17.1074 18.2168C18.8889 16.5301 20 14.1453 20 11.5ZM10.75 16.25C8.6313 16.25 7.44383 16.6577 6.75391 17.2197C6.1753 17.6911 5.85241 18.3495 5.67969 19.2354C7.13579 20.192 8.87641 20.75 10.75 20.75C12.6232 20.75 14.3633 20.1916 15.8193 19.2354C15.6466 18.3496 15.3246 17.6911 14.7461 17.2197C14.0562 16.6577 12.8687 16.25 10.75 16.25ZM13 9.5C13 8.25736 11.9927 7.25 10.75 7.25C9.50732 7.25 8.5 8.25736 8.5 9.5C8.5 10.7427 9.50731 11.75 10.75 11.75C11.9927 11.75 13 10.7427 13 9.5ZM21.5 11.5C21.5 15.0718 19.7573 18.2368 17.0791 20.1904C15.3035 21.4856 13.1148 22.25 10.75 22.25C8.38513 22.25 6.19648 21.4857 4.4209 20.1904C1.74264 18.2368 0 15.0718 0 11.5C0 5.56294 4.81294 0.75 10.75 0.75C16.687 0.75 21.5 5.56293 21.5 11.5ZM14.5 9.5C14.5 11.5711 12.8211 13.25 10.75 13.25C8.67889 13.25 7 11.5711 7 9.5C7 7.42894 8.67888 5.75 10.75 5.75C12.8211 5.75 14.5 7.42894 14.5 9.5Z" fill="#1C274C"/>
</svg>
