<svg width="28" height="28" viewBox="0 0 28 28" fill="none" xmlns="http://www.w3.org/2000/svg">
<path d="M14 0C14.6338 0 15.1475 0.513772 15.1475 1.14754C15.1475 1.78131 14.6338 2.29508 14 2.29508C11.685 2.29508 9.42152 2.98127 7.49665 4.26742C5.57186 5.55357 4.07209 7.38228 3.1862 9.52101C2.30035 11.6597 2.06848 14.013 2.52008 16.2834C2.97172 18.554 4.08638 20.6397 5.72334 22.2767C7.3603 23.9136 9.44602 25.0283 11.7166 25.4799C13.987 25.9315 16.3403 25.6996 18.479 24.8138C20.6177 23.9279 22.4464 22.4281 23.7326 20.5033C25.0187 18.5785 25.7049 16.315 25.7049 14C25.7049 13.3662 26.2187 12.8525 26.8525 12.8525C27.4862 12.8525 28 13.3662 28 14C28 16.769 27.1787 19.4759 25.6404 21.7782C24.1021 24.0803 21.9156 25.8745 19.3576 26.9341C16.7994 27.9937 13.984 28.2713 11.2683 27.7311C8.55272 27.1908 6.05848 25.8572 4.10064 23.8994C2.1428 21.9415 0.809174 19.4473 0.268929 16.7317C-0.271264 14.016 0.00630528 11.2006 1.06593 8.64243C2.12553 6.08439 3.91966 3.89795 6.2218 2.35963C8.52409 0.821293 11.231 7.35583e-07 14 0ZM28 8.85938C27.9998 9.49299 27.4861 10.0069 26.8525 10.0069C26.2188 10.0069 25.7051 9.49299 25.7049 8.85938V3.91778L14.8113 14.8114C14.3632 15.2595 13.6368 15.2595 13.1886 14.8114C12.7405 14.3632 12.7405 13.6368 13.1886 13.1887L24.0822 2.29508H19.1406C18.507 2.29489 17.9931 1.78119 17.9931 1.14754C17.9931 0.513893 18.507 0.000195252 19.1406 0H26.8525C27.4862 0 28 0.513772 28 1.14754V8.85938Z" fill="#1C274C"/>
</svg>
