<svg width="28" height="28" viewBox="0 0 28 28" fill="none" xmlns="http://www.w3.org/2000/svg">
<path d="M0 14C0.000240428 6.26841 6.26841 0.000240423 14 0C14.68 0 15.2318 0.551789 15.2318 1.2318C15.2318 1.9118 14.68 2.46359 14 2.46359C7.62843 2.46383 2.46383 7.62843 2.46359 14C2.46359 20.3718 7.62828 25.5375 14 25.5377C14.68 25.5377 15.2318 26.0895 15.2318 26.7695C15.2316 27.4493 14.6799 28 14 28C6.26827 27.9998 0 21.7318 0 14Z" fill="#1C274C"/>
<path d="M21.1102 8.34113C21.5909 7.86066 22.3702 7.86081 22.851 8.34113L27.6393 13.1294C27.8702 13.3603 28 13.6739 28 14.0004C28 14.327 27.8702 14.6406 27.6393 14.8715L22.851 19.6598C22.3702 20.1401 21.5909 20.1402 21.1102 19.6598C20.6294 19.1789 20.6294 18.3985 21.1102 17.9176L23.7956 15.2322H10.8083C10.1283 15.2322 9.57649 14.6805 9.57649 14.0004C9.57649 13.3204 10.1283 12.7686 10.8083 12.7686H23.7956L21.1102 10.0833C20.6294 9.60244 20.6294 8.82197 21.1102 8.34113Z" fill="#1C274C"/>
</svg>
