<svg width="23" height="22" viewBox="0 0 23 22" fill="none" xmlns="http://www.w3.org/2000/svg">
<path d="M20.875 10.7474C20.875 5.6388 16.7336 1.49744 11.625 1.49744C6.51637 1.49744 2.375 5.6388 2.375 10.7474C2.375 15.8561 6.51637 19.9974 11.625 19.9974C16.7336 19.9974 20.875 15.8561 20.875 10.7474ZM22.375 10.7474C22.375 16.6845 17.5621 21.4974 11.625 21.4974C5.68794 21.4974 0.875 16.6845 0.875 10.7474C0.875 4.81038 5.68794 -0.00256348 11.625 -0.00256348C17.5621 -0.00256348 22.375 4.81038 22.375 10.7474Z" fill="#777777"/>
<path d="M10.875 15.7474V9.74744C10.875 9.33322 11.2108 8.99744 11.625 8.99744C12.0392 8.99744 12.375 9.33322 12.375 9.74744V15.7474C12.375 16.1616 12.0392 16.4974 11.625 16.4974C11.2108 16.4974 10.875 16.1616 10.875 15.7474Z" fill="#777777"/>
<path d="M11.625 5.74744C12.1773 5.74744 12.625 6.19515 12.625 6.74744C12.625 7.29972 12.1773 7.74744 11.625 7.74744C11.0727 7.74744 10.625 7.29972 10.625 6.74744C10.625 6.19515 11.0727 5.74744 11.625 5.74744Z" fill="#777777"/>
</svg>
