<svg width="28" height="28" viewBox="0 0 28 28" fill="none" xmlns="http://www.w3.org/2000/svg">
<path d="M25.9949 14.0005C25.9949 7.3763 20.6247 2.00633 14.0005 2.00614C7.37618 2.00614 2.00614 7.37618 2.00614 14.0005C2.00633 20.6247 7.3763 25.9949 14.0005 25.9949C20.6246 25.9948 25.9948 20.6246 25.9949 14.0005ZM28 14.0005C27.9998 21.7321 21.7321 27.9998 14.0005 28C6.26882 28 0.000195499 21.7322 0 14.0005C0 6.2687 6.2687 0 14.0005 0C21.7322 0.000195504 28 6.26882 28 14.0005Z" fill="#1C274C"/>
<path d="M12.9971 20.4987V12.7005C12.9971 12.1467 13.4464 11.6974 14.0002 11.6974C14.5539 11.6974 15.0033 12.1467 15.0033 12.7005V20.4987C15.0033 21.0525 14.5539 21.5018 14.0002 21.5018C13.4464 21.5018 12.9971 21.0525 12.9971 20.4987Z" fill="#1C274C"/>
<path d="M14.0002 7.50163C14.718 7.50163 15.2999 8.08353 15.2999 8.80134C15.2999 9.51915 14.718 10.101 14.0002 10.101C13.2824 10.101 12.7005 9.51915 12.7005 8.80134C12.7005 8.08353 13.2824 7.50163 14.0002 7.50163Z" fill="#1C274C"/>
</svg>
